<?xml version="1.0" encoding="utf-8"?>
<!-- Generator: Adobe Illustrator 24.1.2, SVG Export Plug-In . SVG Version: 6.00 Build 0)  -->
<svg version="1.1" id="Layer_1" xmlns="http://www.w3.org/2000/svg" xmlns:xlink="http://www.w3.org/1999/xlink" x="0px" y="0px"
	 viewBox="0 0 128 128" style="enable-background:new 0 0 128 128;" xml:space="preserve">
<style type="text/css">
	.st0{fill:#3C4752;}
</style>
<path class="st0" d="M64,101.3c-20.6,0-37.3-16.7-37.3-37.3S43.4,26.6,64,26.6s37.3,16.7,37.3,37.3h12.3c0-27.4-22.2-49.7-49.7-49.7
	S14.3,36.5,14.3,64s22.2,49.7,49.7,49.7V101.3z M64,83c-10.5,0-19-8.5-19-19s8.5-19,19-19c10.5,0,19,8.5,19,19l0,0h10.7
	c0-16.4-13.3-29.7-29.7-29.7S34.3,47.6,34.3,64S47.6,93.6,64,93.6V83z M0,64C0.1,28.6,28.8,0,64.2,0.1c35.3,0.1,63.9,28.8,63.8,64.2
	c-0.1,35.3-28.8,63.9-64.2,63.8C28.6,128,0.1,99.5,0,64.3V64z"/>
</svg>
