<?xml version="1.0" encoding="utf-8"?>
<!-- Generator: Adobe Illustrator 24.1.2, SVG Export Plug-In . SVG Version: 6.00 Build 0)  -->
<svg version="1.1" id="Layer_1" xmlns="http://www.w3.org/2000/svg" xmlns:xlink="http://www.w3.org/1999/xlink" x="0px" y="0px"
	 viewBox="0 0 128 138.4" style="enable-background:new 0 0 128 138.4;" xml:space="preserve">
<style type="text/css">
	.st0{fill-rule:evenodd;clip-rule:evenodd;fill:#3C4752;}
</style>
<path class="st0" d="M73.1,26.9c16.1-1.5,32.1-10.5,48.2-2.9v106.1c-22.2-10.6-44.3,10.6-66.5,0l0-16.8c0-0.6,0-1.2,0-1.9
	c-16.3,1.4-32.7,10.6-49,2.9V8.2c22.4,10.6,44.9-10.6,67.3,0V26.9z M85.4,84.5c1.9-0.5,3.9-0.9,5.8-1.4c8.6-2,12-7.5,12-16.1V53.2
	c0-8.5-2.2-13.8-12.6-11.4c-5.8,1.4-11.6,2.9-17.4,3.4v69.2c4.1-0.4,8.2-1.3,12.2-2.2V84.5z M85.4,73.2V53.7
	c0.8-0.2,1.5-0.4,2.3-0.5c2.9-0.7,3.1,0.8,3.1,3.3c0,3.8,0,7.7,0,11.5c0,2.1-0.3,4-3.1,4.7C86.9,72.8,86.1,73,85.4,73.2z M36.6,96.4
	V66.8c0.9-0.2,1.7-0.4,2.6-0.6c2.5-0.6,3.2,0.1,3.2,3.3v20.2c0,3.1,0.5,4.4,1.1,5c4.1-0.9,8.2-1.7,12.2-2v-0.5c-0.5-0.8-1-2.1-1-5
	V63.8c0-5.1-3.3-7.1-5.2-7.5c2.3-1.5,5.4-4.3,5.4-10V35.2c0-7.4-3.8-11.3-11.2-9.6c-6.4,1.5-12.9,3.2-19.3,3.8v69.2
	C28.4,98.2,32.5,97.4,36.6,96.4z M36.6,55.4V37.9c0.9-0.2,1.8-0.4,2.8-0.6c2.5-0.6,3,0.2,3,3.2v9.4c0,3.3-0.9,4.4-3.4,5
	C38.2,55,37.4,55.2,36.6,55.4z"/>
</svg>
