<?xml version="1.0" encoding="utf-8"?>
<!-- Generator: Adobe Illustrator 24.1.2, SVG Export Plug-In . SVG Version: 6.00 Build 0)  -->
<svg version="1.1" id="regular" xmlns="http://www.w3.org/2000/svg" xmlns:xlink="http://www.w3.org/1999/xlink" x="0px" y="0px"
	 viewBox="0 0 128 128" style="enable-background:new 0 0 128 128;" xml:space="preserve">
<style type="text/css">
	.st0{fill:#3C4752;}
</style>
<g>
	<path class="st0" d="M94.3,89.2C77,77.8,55.3,75.1,29.8,81c-5.1,1.2-3.4,9,1.8,7.8c41-9.5,56.3,7.7,60.4,7.7
		C96,96.5,97.6,91.3,94.3,89.2z"/>
	<path class="st0" d="M28,68.8C51,63.3,77,66.5,96,77c4.6,2.6,8.5-4.4,3.9-7C79.2,58.6,51,55.1,26.2,61C21.1,62.2,22.9,70,28,68.8
		L28,68.8z"/>
	<path class="st0" d="M25,48c24.2-7.4,58.1-3.3,77.2,9.2c4.4,2.9,8.8-3.8,4.4-6.7c-21.2-14-57.3-18.3-83.9-10.2
		C17.6,41.9,20,49.5,25,48L25,48z"/>
	<path class="st0" d="M64,128c35.3,0,64-28.7,64-64S99.3,0,64,0S0,28.7,0,64S28.7,128,64,128z M64,8c30.9,0,56,25.1,56,56
		s-25.1,56-56,56S8,94.9,8,64S33.1,8,64,8z"/>
</g>
</svg>
