<?xml version="1.0" encoding="utf-8"?>
<!-- Generator: Adobe Illustrator 24.1.2, SVG Export Plug-In . SVG Version: 6.00 Build 0)  -->
<svg version="1.1" id="Capa_1" xmlns="http://www.w3.org/2000/svg" xmlns:xlink="http://www.w3.org/1999/xlink" x="0px" y="0px"
	 viewBox="0 0 128 128" style="enable-background:new 0 0 128 128;" xml:space="preserve">
<style type="text/css">
	.st0{fill:#3C4752;}
</style>
<g>
	<g>
		<g>
			<path class="st0" d="M64,20.2c-21.4,0-38.7,17.4-38.7,38.7c0,10.2,4,19.6,10.5,26.5c1-3.6,2.7-6.9,4.9-9.9
				c-3.3-4.7-5.3-10.4-5.3-16.6c0-15.8,12.8-28.6,28.6-28.6s28.6,12.8,28.6,28.6c0,6.2-2,11.9-5.3,16.6c2.3,3,3.9,6.3,4.9,9.9
				c6.5-6.9,10.5-16.3,10.5-26.5C102.7,37.6,85.4,20.2,64,20.2z"/>
		</g>
	</g>
	<g>
		<g>
			<path class="st0" d="M64,0C31.5,0,5.1,26.4,5.1,58.9c0,22.8,13,42.5,31.9,52.4l-1.9-13C23,89.4,15.2,75.1,15.2,58.9
				C15.2,32,37.1,10.1,64,10.1s48.8,21.9,48.8,48.8c0,16.1-7.9,30.4-19.9,39.3l-1.9,13c18.9-9.8,31.9-29.6,31.9-52.4
				C122.9,26.4,96.5,0,64,0z"/>
		</g>
	</g>
	<g>
		<g>
			<path class="st0" d="M64,40.4c-8.4,0-15.2,6.8-15.2,15.2S55.6,70.7,64,70.7s15.2-6.8,15.2-15.2S72.4,40.4,64,40.4z M64,60.6
				c-2.8,0-5.1-2.3-5.1-5.1c0-2.8,2.3-5.1,5.1-5.1s5.1,2.3,5.1,5.1C69.1,58.4,66.8,60.6,64,60.6z"/>
		</g>
	</g>
	<g>
		<g>
			<path class="st0" d="M81.1,78.5c-4.3-4.9-10.5-7.8-17.1-7.8s-12.8,2.8-17.1,7.8c-4.3,4.9-6.2,11.5-5.3,18l2.6,18.5
				c1.1,7.4,7.5,13,15,13h9.4c7.5,0,13.9-5.6,15-13l2.6-18.5C87.3,90,85.4,83.5,81.1,78.5z M76.4,95.1l-2.6,18.5
				c-0.4,2.5-2.5,4.3-5,4.3h-9.4c-2.5,0-4.6-1.9-5-4.3l-2.6-18.5c-0.5-3.6,0.6-7.2,2.9-9.9c2.4-2.7,5.8-4.3,9.4-4.3
				c3.6,0,7.1,1.6,9.4,4.3C75.8,87.9,76.9,91.5,76.4,95.1z"/>
		</g>
	</g>
</g>
</svg>
