<?xml version="1.0" encoding="utf-8"?>
<!-- Generator: Adobe Illustrator 24.1.2, SVG Export Plug-In . SVG Version: 6.00 Build 0)  -->
<svg version="1.1" id="Layer_1" xmlns="http://www.w3.org/2000/svg" xmlns:xlink="http://www.w3.org/1999/xlink" x="0px" y="0px"
	 viewBox="0 0 128 128" style="enable-background:new 0 0 128 128;" xml:space="preserve">
<style type="text/css">
	.st0{fill:#3C4752;}
</style>
<g id="anchor_fm_media_social">
	<path class="st0" d="M51.4,57.8H30.8c-2.2-3.9-6.3-6.3-10.8-6.3C13,51.5,7.4,57.1,7.4,64S13,76.6,20,76.6c4.5,0,8.6-2.4,10.8-6.3
		h20.6c3.5,0,6.3-2.8,6.3-6.3C57.7,60.6,54.9,57.8,51.4,57.8z"/>
	<path class="st0" d="M67.1,91.3c15-8.7,20.2-27.9,11.5-42.9c-2.8-4.8-6.7-8.7-11.5-11.5c-3.1-1.6-6.9-0.4-8.5,2.7
		c-1.5,2.9-0.6,6.5,2.2,8.2c9,5.2,12.1,16.7,6.9,25.8c-1.7,2.9-4.1,5.3-6.9,6.9c-3,1.7-4.1,5.5-2.4,8.6c0,0.1,0.1,0.2,0.1,0.2
		c1.1,1.9,3.2,3.1,5.4,3.1C65.1,92.3,66.2,91.9,67.1,91.3z"/>
	<path class="st0" d="M73,109.5c25.1-11.9,35.8-41.9,23.9-67C92,32,83.5,23.6,73,18.6c-3.1-1.5-6.9-0.2-8.4,3
		c-1.5,3.1-0.2,6.9,3,8.4c18.8,8.9,26.8,31.4,17.9,50.3c-3.7,7.8-10,14.2-17.9,17.9c-3.2,1.4-4.6,5.2-3.1,8.3c1,2.3,3.3,3.7,5.8,3.7
		C71.2,110.1,72.1,109.9,73,109.5z"/>
	<path class="st0" d="M79.1,0.7c-3.1-1.6-6.9-0.3-8.4,2.8s-0.3,6.9,2.8,8.4c0.2,0.1,0.4,0.2,0.6,0.3c28.7,12.5,41.7,45.8,29.3,74.5
		c-5.7,13.1-16.2,23.5-29.3,29.3c-3.2,1.4-4.7,5.1-3.3,8.3c0,0,0,0,0,0c1,2.3,3.3,3.8,5.8,3.8c0.9,0,1.7-0.2,2.5-0.6
		c35-15.3,51-56.1,35.7-91.1C107.8,20.4,95.1,7.6,79.1,0.7z"/>
</g>
</svg>
