<?xml version="1.0" encoding="utf-8"?>
<!-- Generator: Adobe Illustrator 24.1.2, SVG Export Plug-In . SVG Version: 6.00 Build 0)  -->
<svg version="1.1" id="Layer_1" xmlns="http://www.w3.org/2000/svg" xmlns:xlink="http://www.w3.org/1999/xlink" x="0px" y="0px"
	 viewBox="0 0 128 128" style="enable-background:new 0 0 128 128;" xml:space="preserve">
<style type="text/css">
	.st0{fill:#3C4752;}
</style>
<path id="Logo" class="st0" d="M72.3,68.9c1.1,0,2.1,0.1,3.1,0.3c5.6,1.1,10.1,5.1,12,10.4c0.5,1.7,1.3,4.3,1.7,6l0.6,2.3l2.4-0.1
	c18.9-0.4,34.4-15.8,34.4-34.9c0-28.9-24.1-53-61-53C50.3,0.1,35.9,5.6,25,14.5C10.6,26.2,1.5,44,1.5,64c0,5.1,0.6,10.3,1.8,15
	c4.2,17.4,15.5,32.1,30.7,40.7c9.2,5.2,20.2,8.3,31.5,8.3c2.8,0,5.6-0.2,8.3-0.5c16.7-2.2,31.3-10.7,41.4-23.1l0.7-0.8l-1.3-4.6
	l-2.5,0.6c-7.7,2-15.5,3.1-23.8,3.1c-6.6,0-12.9-0.7-19.2-2c-5.6-1.1-10.2-5.2-12-10.6c-0.6-1.7-0.8-3.2-0.8-5.1
	c-0.1-4.2,1.4-7.6,4-10.5C63.2,71,67.5,68.9,72.3,68.9z M65.5,6c34.1,0,55,21.9,55,47c0,15-11.6,27.3-26.2,28.8
	c-0.4-1.4-0.8-2.9-1.2-4c-9.3-29.1-31.4-51.6-59.9-62C42.5,9.5,53.4,6,65.5,6z M7.5,64c0-17.5,7.8-33.2,20-43.9
	C50.9,27.6,70,43.6,81.2,64.8c-1.4-0.6-3-1.1-4.6-1.4c-6.5-1.3-13.4-2.1-20.3-2.1c-17.3,0-33.8,4.6-48,12.4
	C7.8,70.5,7.5,67.3,7.5,64z M67.9,106.5c6.5,1.4,13.5,2.1,20.4,2.1c5.3,0,10.6-0.4,15.7-1.3c-8.1,7.2-18.2,12.2-29.4,13.9
	c-4.3-5-8-10.4-11-16.2C64.9,105.7,66.4,106.2,67.9,106.5z M67.4,122c-0.6,0-1.3,0-1.9,0c-9.7,0-18.6-2.3-26.6-6.4
	c2.3-10.2,6.3-19.6,11.6-28.1c0.2,1.6,0.5,3.1,1,4.5C55,102.8,60.5,113.1,67.4,122z M55.8,70.4c-10.4,11.7-18.3,26.2-22.3,41.9
	c-11.4-7.6-20-19.1-23.8-32.6c13.8-8,29.5-12.5,46.6-12.5c1,0,1.9,0,2.9,0C57.9,68.2,56.8,69.3,55.8,70.4z"/>
</svg>
