<?xml version="1.0" encoding="utf-8"?>
<!-- Generator: Adobe Illustrator 24.1.2, SVG Export Plug-In . SVG Version: 6.00 Build 0)  -->
<svg version="1.1" id="Layer_1" xmlns="http://www.w3.org/2000/svg" xmlns:xlink="http://www.w3.org/1999/xlink" x="0px" y="0px"
	 viewBox="0 0 128 128" style="enable-background:new 0 0 128 128;" xml:space="preserve">
<style type="text/css">
	.st0{fill:#3C4752;}
</style>
<g>
	<path id="h" class="st0" d="M29.1,78.8c-10.5-9.3-15.8-19-15.8-28.1s5.2-18.8,12-23.1c3.3-1.4,4.7,2.7,2.6,4.1
		c-5.4,3.4-9.7,11.4-9.7,19.1S23,66.9,32.4,75.2C34.6,77.9,31.1,80.5,29.1,78.8L29.1,78.8z M44.8,70.5c-7.1-4-11.9-11.8-11.9-19.3
		S37,37,43.4,33.7c3.4-1.2,4.5,3,2.3,4.3c-4.9,2.5-7.9,7.6-7.9,13c0,6,3.8,12.1,9.4,15.2C50,68.5,47,71.7,44.8,70.5L44.8,70.5z
		 M64.2,63.4c-5.8,0-10.5-4.7-10.5-10.5s4.7-10.5,10.5-10.5v-10C58,23,47.2,16.5,35,16.5c-19.3,0-35,15.7-35,35
		c0,12.3,7.8,21.1,15.9,29.3l31.8,30.1c2,1.3,4.4,0.4,4.4-1.9V85.6c0-6.8,5.5-12.3,12.3-12.3L64.2,63.4z"/>
	<g transform="matrix(-1 0 0 1 510 0)">
		<path id="h_1_" class="st0" d="M411.1,78.8c2,1.7,5.5-0.9,3.3-3.6c-9.4-8.3-14.2-16.7-14.2-24.4s4.3-15.7,9.7-19.1
			c2.1-1.4,0.7-5.5-2.6-4.1c-6.8,4.3-12,14-12,23.1S400.6,69.5,411.1,78.8L411.1,78.8z M426.8,70.5c2.2,1.2,5.2-2,2.4-4.3
			c-5.6-3.1-9.4-9.2-9.4-15.2c0-5.4,3-10.5,7.9-13c2.2-1.3,1.1-5.5-2.3-4.3c-6.4,3.3-10.5,10-10.5,17.5S419.7,66.5,426.8,70.5
			L426.8,70.5z M446.3,73.3c-6.8,0-12.3,5.5-12.3,12.3V109c0,2.3-2.4,3.2-4.4,1.9l-31.8-30.1c-8.1-8.2-15.9-17-15.9-29.3
			c0-19.3,15.7-35,35-35c12.2,0,23,6.5,29.3,15.9v10c-5.8,0-10.5,4.7-10.5,10.5s4.7,10.5,10.5,10.5L446.3,73.3z"/>
	</g>
</g>
</svg>
