<?xml version="1.0" standalone="no"?>
<!DOCTYPE svg PUBLIC "-//W3C//DTD SVG 20010904//EN"
 "http://www.w3.org/TR/2001/REC-SVG-20010904/DTD/svg10.dtd">
<svg version="1.0" xmlns="http://www.w3.org/2000/svg"
 width="512.000000pt" height="512.000000pt" viewBox="0 0 512.000000 512.000000"
 preserveAspectRatio="xMidYMid meet">
<metadata>
Created by potrace 1.16, written by Peter Selinger 2001-2019
</metadata>
<g transform="translate(0.000000,512.000000) scale(0.100000,-0.100000)"
fill="#000000" stroke="none">
<path d="M2609 5093 c-9 -16 -30 -73 -48 -128 -30 -93 -38 -108 -128 -220
-128 -160 -184 -247 -216 -336 -45 -128 -51 -166 -49 -328 0 -84 -1 -152 -3
-150 -1 2 -19 44 -39 93 -46 114 -60 136 -91 136 -34 0 -52 -33 -59 -112 -4
-36 -14 -84 -22 -105 -29 -69 -115 -236 -165 -320 -96 -159 -158 -337 -166
-475 -5 -85 6 -227 23 -308 4 -18 -33 13 -139 117 -158 156 -189 176 -221 144
l-20 -20 24 -116 c27 -136 25 -239 -11 -495 -33 -233 -31 -347 10 -495 41
-147 63 -205 104 -270 43 -69 166 -222 183 -229 30 -12 11 -24 -53 -35 -38 -7
-81 -14 -96 -16 -16 -3 -107 2 -202 10 -231 19 -290 9 -362 -67 -45 -46 -73
-116 -79 -195 -8 -106 -9 -107 -74 -149 -49 -31 -66 -49 -88 -94 -24 -48 -27
-66 -26 -145 3 -184 89 -337 231 -410 46 -24 64 -27 145 -27 82 1 156 13 209
36 13 6 18 0 23 -27 11 -61 65 -155 113 -197 152 -133 363 -146 538 -32 33 21
84 61 113 88 l53 49 70 -66 c206 -197 579 -261 790 -136 49 28 135 107 165
150 l20 28 107 -65 c59 -35 133 -74 165 -86 109 -41 237 -25 375 48 74 38 122
90 153 165 l17 43 111 0 c185 0 309 50 402 162 76 92 106 145 121 216 29 138
-32 272 -154 337 -29 16 -30 20 -35 95 -3 51 -13 97 -28 132 -30 69 -112 145
-174 161 -28 7 -147 11 -316 11 l-272 0 41 46 c101 114 213 304 280 470 100
250 116 456 60 792 -17 103 -31 221 -31 261 1 83 -9 111 -38 111 -37 0 -52
-14 -86 -83 -37 -74 -143 -225 -190 -267 l-27 -25 6 30 c4 17 14 64 23 105 23
107 15 250 -21 355 -44 131 -76 187 -239 417 -42 58 -94 181 -107 253 -10 55
-5 102 22 197 10 38 10 49 0 62 -19 23 -54 20 -78 -6 -38 -41 -127 -192 -157
-266 -16 -39 -33 -72 -38 -72 -6 0 -7 31 -4 73 25 311 28 396 17 483 -14 117
-29 159 -145 395 -53 108 -101 220 -107 248 -13 60 -30 81 -68 81 -19 0 -31
-8 -42 -27z m205 -510 c56 -118 59 -151 52 -504 -8 -340 -2 -412 38 -472 15
-23 31 -33 53 -35 40 -4 49 13 63 106 11 81 32 146 68 217 l25 50 18 -84 c23
-106 83 -229 189 -391 46 -69 96 -154 114 -190 29 -63 30 -70 30 -200 0 -138
-8 -191 -50 -340 -56 -197 -18 -229 131 -109 88 71 214 198 234 236 20 40 28
17 46 -148 24 -208 17 -419 -19 -559 -54 -209 -168 -402 -355 -601 -64 -69
-80 -81 -98 -75 l-22 7 18 48 c27 66 70 253 79 339 8 73 5 115 -18 257 -26
162 -57 235 -101 235 -11 0 -30 -17 -47 -41 -96 -143 -237 -316 -219 -269 38
100 80 247 87 308 6 42 13 85 16 95 7 24 -13 47 -41 47 -15 0 -29 -13 -46 -44
l-24 -44 -1 152 c0 224 -19 282 -158 480 -100 142 -149 244 -176 360 -19 80
-21 112 -16 213 3 65 9 142 12 171 11 97 -12 103 -70 19 -64 -94 -132 -297
-152 -456 l-6 -54 -49 76 c-53 83 -72 99 -106 86 -22 -8 -23 -13 -23 -136 0
-204 -22 -275 -184 -603 -118 -241 -131 -284 -131 -456 l0 -131 -68 61 c-132
118 -226 165 -244 121 -3 -9 6 -51 21 -94 19 -59 30 -124 41 -251 13 -153 19
-181 49 -255 18 -46 54 -118 80 -160 25 -42 46 -77 46 -79 0 -2 -46 -3 -102
-2 -69 2 -111 7 -127 17 -68 41 -231 308 -288 473 -37 108 -41 238 -12 456 16
120 23 228 23 342 l1 167 78 -77 c43 -42 114 -124 159 -182 109 -140 138 -170
165 -170 13 0 29 10 39 24 15 23 14 30 -22 118 -53 134 -86 297 -86 438 -1
148 20 213 158 488 57 112 112 232 124 267 20 61 43 95 53 78 2 -4 17 -46 32
-93 45 -140 95 -209 130 -180 27 23 34 105 28 322 -5 181 -3 225 11 291 24
109 71 196 172 317 103 125 164 209 194 269 l22 44 64 -119 c36 -65 80 -151
98 -191z m-184 -1198 c26 -115 76 -218 197 -402 94 -143 111 -183 125 -288 15
-122 -2 -258 -49 -389 -43 -122 -52 -176 -29 -176 8 0 47 30 86 66 l69 66 -25
-74 c-13 -40 -41 -108 -61 -151 -28 -60 -34 -82 -26 -95 48 -77 275 81 355
246 20 41 38 70 41 65 12 -22 18 -96 18 -250 1 -184 -12 -301 -42 -398 -25
-82 -51 -115 -92 -115 -69 -1 -167 -73 -167 -123 0 -10 -8 -17 -17 -17 -54 -1
-147 -70 -165 -123 -9 -25 -14 -27 -63 -27 -51 0 -118 -20 -129 -39 -3 -5 -34
-6 -69 -4 -46 4 -72 1 -92 -10 -27 -14 -31 -13 -60 8 -43 32 -100 48 -146 41
-38 -6 -39 -5 -55 34 -22 53 -84 106 -145 121 -27 7 -49 18 -49 24 0 7 -12 30
-28 51 -37 52 -158 291 -184 362 -15 41 -23 97 -29 197 -4 77 -11 157 -15 178
-11 64 20 46 156 -93 89 -92 133 -130 149 -130 19 0 22 4 17 23 -3 12 -17 65
-31 117 -56 206 -33 342 103 609 140 274 181 390 191 546 l6 90 73 -147 c40
-81 77 -150 83 -154 24 -14 28 15 19 125 -12 129 -2 236 33 366 l22 80 7 -80
c3 -44 12 -102 18 -130z m-729 -1977 c21 -6 46 -19 55 -29 15 -17 14 -18 -23
-24 -116 -21 -450 -110 -752 -201 -62 -19 -121 -34 -130 -34 -13 0 -16 12 -16
73 0 64 -4 79 -28 117 -23 34 -26 44 -16 51 29 18 128 21 255 9 144 -14 217
-10 359 20 156 33 232 38 296 18z m1472 -12 c199 -31 336 -40 452 -27 135 14
189 14 237 1 l37 -11 -22 -42 c-14 -27 -23 -66 -25 -108 l-4 -66 -136 28 c-75
16 -220 52 -322 81 -299 83 -360 98 -394 99 -17 1 -42 4 -56 8 l-25 7 35 22
c42 26 92 28 223 8z m816 -126 c22 -39 55 -149 47 -157 -2 -2 -26 2 -54 8 -48
10 -52 13 -64 50 -9 33 -9 49 6 95 10 32 22 54 29 51 7 -2 23 -23 36 -47z
m-3236 5 c20 -41 21 -83 6 -134 -10 -35 -15 -38 -64 -47 l-54 -10 6 31 c15 90
59 195 81 195 5 0 16 -16 25 -35z m1149 -40 c33 -24 58 -77 40 -83 -7 -2 -101
-60 -210 -130 -202 -128 -300 -180 -432 -227 -97 -35 -180 -79 -218 -116 l-30
-29 -6 30 c-11 59 -73 176 -121 228 -26 29 -70 66 -97 81 l-49 29 68 7 c95 10
210 38 333 81 58 20 209 63 335 95 256 65 335 72 387 34z m1240 -14 c84 -22
209 -60 278 -86 132 -48 275 -89 350 -100 83 -12 85 -14 43 -44 -98 -71 -177
-188 -190 -276 -3 -25 -8 -45 -11 -45 -2 0 -21 10 -40 22 -20 12 -109 56 -198
99 -171 81 -310 160 -506 290 -66 43 -124 79 -129 79 -29 0 16 61 66 88 44 25
177 14 337 -27z m-985 -133 c21 -10 21 -11 -14 -56 -19 -25 -60 -96 -90 -156
-31 -61 -91 -168 -135 -238 -82 -133 -101 -170 -113 -227 -8 -36 -60 -94 -139
-154 l-50 -38 -12 70 c-16 96 -49 189 -83 233 -49 65 -165 148 -208 148 -30 0
-2 17 126 74 75 34 198 105 316 180 289 186 324 201 402 164z m519 -4 c64 -34
152 -87 298 -180 65 -42 176 -106 246 -143 l128 -66 -50 -30 c-61 -37 -139
-129 -179 -214 -24 -48 -32 -82 -36 -142 -3 -43 -9 -79 -12 -78 -3 0 -44 26
-90 57 l-85 57 -1 50 c-2 56 -22 100 -101 222 -29 45 -91 158 -138 251 -46 92
-96 182 -110 199 -14 17 -23 33 -19 37 16 16 102 5 149 -20z m-250 -27 c44
-29 82 -90 172 -276 l77 -158 -55 19 c-174 60 -424 62 -563 3 l-38 -16 36 68
c19 38 59 120 89 184 61 133 111 196 159 201 49 6 89 -2 123 -25z m1697 -92
c41 -19 82 -71 96 -123 11 -37 -8 -142 -35 -193 -28 -55 -124 -143 -189 -173
-53 -26 -66 -28 -130 -23 -38 4 -90 12 -114 19 -38 12 -46 19 -58 53 -53 150
75 380 252 452 41 17 131 11 178 -12z m-3355 -17 c126 -59 221 -229 222 -395
0 -66 -16 -78 -124 -95 -89 -14 -157 -4 -232 34 -91 45 -154 172 -155 313 -1
77 25 129 75 151 50 22 158 18 214 -8z m2771 -354 c75 -65 88 -151 37 -259
-31 -66 -68 -102 -142 -136 -133 -61 -252 -59 -283 5 -19 41 0 152 41 234 46
92 143 175 223 192 48 10 81 0 124 -36z m-2202 0 c63 -36 131 -106 153 -157
10 -23 27 -81 37 -130 16 -81 16 -89 1 -115 -24 -40 -95 -58 -171 -44 -77 14
-139 47 -203 105 -111 101 -124 212 -38 325 15 18 36 38 48 43 37 16 123 3
173 -27z m1123 11 c115 -19 240 -73 276 -120 34 -45 55 -112 48 -152 -11 -59
-140 -161 -248 -196 -161 -52 -422 -2 -537 101 -81 73 -109 116 -99 153 21 73
86 141 173 179 116 51 224 61 387 35z"/>
<path d="M3262 5077 c-96 -64 -168 -267 -160 -452 5 -118 25 -170 117 -305
109 -160 116 -178 116 -315 l0 -120 27 -3 c40 -5 61 10 132 94 67 78 137 200
161 281 31 102 12 258 -42 351 -15 26 -74 92 -131 147 -129 124 -156 172 -157
270 0 80 -9 88 -63 52z m38 -260 c13 -18 69 -75 124 -128 130 -124 161 -177
160 -274 -1 -106 -46 -237 -112 -324 l-25 -33 -18 70 c-22 88 -48 139 -142
279 -58 85 -78 126 -87 170 -16 77 -7 180 26 284 l27 84 12 -48 c7 -27 23 -63
35 -80z"/>
<path d="M1362 4408 c-16 -16 -15 -34 4 -88 23 -66 13 -131 -51 -318 -68 -201
-84 -311 -67 -455 22 -175 75 -287 137 -287 20 0 44 17 90 63 161 161 265 527
207 729 -33 116 -152 299 -227 348 -34 22 -75 26 -93 8z m215 -294 c64 -120
67 -271 9 -441 -48 -142 -167 -328 -204 -321 -11 2 -26 28 -41 73 -21 60 -24
90 -25 210 -1 157 5 185 80 392 25 70 50 151 56 182 l11 55 42 -46 c22 -25 55
-72 72 -104z"/>
</g>
</svg>
