<svg width="1860" height="528" viewBox="0 0 1860 528" fill="none" xmlns="http://www.w3.org/2000/svg">
<path d="M0.5 418.5V104.5H72.5V361H191.5V418.5H0.5Z" fill="white"/>
<path d="M286 189H218V418.5H286V189Z" fill="white"/>
<path d="M218 131.5C218 156.7 241.667 164.333 253.5 165C261.5 165 289 165 289 131.5C289 97.9999 267 95.9999 253.5 95.9999C240 95.9999 218 99.9999 218 131.5Z" fill="white"/>
<path d="M331 418.5L327 189H385L395 223C409 201 432.167 191.167 442 189C527.2 172.6 547.167 240.167 546.5 276V418.5H473.5V283C473.5 270.5 472 242.5 437 242.5C409 242.5 402.333 269.5 402.5 283V418.5H331Z" fill="white"/>
<path d="M588 89.4999V418.5H658.5V347L675 328L732 418.5H818L724.5 283L803 189H720L658.5 283V89.4999H588Z" fill="white"/>
<path d="M1009 407.5L997 360C898.2 385.6 872.833 349.333 872.5 328H950V276H872.5C874.833 262.167 886.6 234.3 915 233.5C943.4 232.7 952.833 261.5 954 276V328H1016.5C1023 316.5 1029.3 280.8 1002.5 230C969 166.5 870.5 177.5 835.5 221C800.5 264.5 785.5 341.5 842 395.5C887.2 438.7 972.167 421.5 1009 407.5Z" fill="white"/>
<path d="M1107 302C1107.8 356.8 1138.67 367.5 1154 366C1159.42 366 1164.23 364.996 1168.5 363.287L1181.11 407.5C1145.58 432.652 1107.27 423.006 1090 413C1012 365 1030.83 276.333 1050 238C1102 158 1169 185.667 1196 209.5V89.4999H1267.5V418.5H1207L1203.5 386C1198.8 391.907 1193.95 396.969 1189 401.285L1174.85 360C1187.72 351.715 1194.15 336.8 1196 328C1196.33 319.333 1196.8 296.8 1196 276C1195.2 255.2 1173.33 244.333 1162.5 241.5C1143.67 238.833 1106.2 247.2 1107 302Z" fill="white"/>
<path d="M1399.5 0.499898C1349.5 0.499898 1337.67 34.4999 1338 51.4999V114.5L1431.5 123.5C1431.5 113.167 1438.8 92.6 1468 93C1504.5 93.5 1506.5 122.5 1506.5 131.5C1506.5 140.5 1500.5 164.5 1468 164.5C1442 164.5 1432.83 143.5 1431.5 133L1338 127.5V449.5L1447 418.5H1435.5V192.5H1503.5V418.5H1468.5L1338 466C1338 517.2 1379 528.333 1399.5 527.5H1795.5C1852.3 527.5 1861.83 484.833 1859.5 463.5V268.5H1762.5V418.5H1690.5C1690.67 392 1690.9 336.3 1690.5 325.5C1690 312 1700 242.5 1658.5 243.5C1625.3 244.3 1615.67 266.5 1615 277.5V418.5H1544V192.5H1605.5L1609 222C1614.5 210.333 1637.9 187 1687.5 187C1737.1 187 1756.17 234.333 1759.5 258H1859.5V59.9999C1859.5 9.1999 1819.83 -0.833436 1800 0.499898H1399.5Z" fill="white"/>
<path d="M960 276H949L943 328H960V276Z" fill="white"/>
<path d="M1177 358.5L1168 363.5L1179 409L1190 400.5L1192.5 395.5L1177 358.5Z" fill="white"/>
<path d="M1338 449V467L1462.5 443L1474.5 418.5H1446L1338 449Z" fill="white"/>
<path d="M1338 133.5V112L1431.5 123.5V133.5H1338Z" fill="white"/>
<path d="M1762.5 275.5C1762.5 269.9 1759.83 258.167 1759 254.5L1767 244L1859.5 257.5V269C1827.33 273.5 1762.5 281.1 1762.5 275.5Z" fill="white"/>
</svg>
