<?xml version="1.0" encoding="UTF-8" standalone="no"?>
<svg
   xmlns:dc="http://purl.org/dc/elements/1.1/"
   xmlns:cc="http://creativecommons.org/ns#"
   xmlns:rdf="http://www.w3.org/1999/02/22-rdf-syntax-ns#"
   xmlns:svg="http://www.w3.org/2000/svg"
   xmlns="http://www.w3.org/2000/svg"
   viewBox="0 0 816 1056"
   height="1056"
   width="816"
   xml:space="preserve"
   id="svg2"
   version="1.1"><metadata
     id="metadata8"><rdf:RDF><cc:Work
         rdf:about=""><dc:format>image/svg+xml</dc:format><dc:type
           rdf:resource="http://purl.org/dc/dcmitype/StillImage" /></cc:Work></rdf:RDF></metadata><defs
     id="defs6"><clipPath
       id="clipPath18"
       clipPathUnits="userSpaceOnUse"><path
         id="path16"
         d="M 0,792 H 612 V 0 H 0 Z" /></clipPath></defs><g
     transform="matrix(1.3333333,0,0,-1.3333333,0,1056)"
     id="g10"><g
       id="g12"><g
         clip-path="url(#clipPath18)"
         id="g14"><g
           transform="translate(575.291,396)"
           id="g20"><path
             id="path22"
             style="fill:#e8483d;fill-opacity:1;fill-rule:nonzero;stroke:none"
             d="m 0,0 c 0,-148.726 -120.565,-269.291 -269.291,-269.291 -148.726,0 -269.292,120.565 -269.292,269.291 0,148.726 120.566,269.292 269.292,269.292 C -120.565,269.292 0,148.726 0,0" /></g><g
           transform="translate(166.7471,512.8228)"
           id="g24"><path
             id="path26"
             style="fill:#373535;fill-opacity:1;fill-rule:nonzero;stroke:none"
             d="m 0,0 h -7.38 v 27.798 c 0,7.954 -2.706,11.726 -8.774,11.726 -6.806,0 -10.742,-4.92 -10.742,-14.186 V 0 h -7.38 v 62.321 h 7.38 V 38.13 c 2.624,5.166 7.216,7.79 13.284,7.79 C -4.428,45.92 0,39.935 0,27.798 Z" /></g><g
           transform="translate(202.6616,535.373)"
           id="g28"><path
             id="path30"
             style="fill:#373535;fill-opacity:1;fill-rule:nonzero;stroke:none"
             d="m 0,0 c -8.61,0 -12.956,-3.034 -12.956,-9.02 0,-5.33 3.362,-8.528 9.184,-8.528 8.036,0 13.038,5.822 13.12,15.908 l 0,1.64 H 2.46 Z M 16.729,-22.55 H 9.348 v 6.642 c -3.198,-5.33 -7.872,-7.79 -14.678,-7.79 -9.102,0 -15.006,5.576 -15.006,14.186 0,9.922 6.724,15.252 19.762,15.252 h 9.922 v 1.148 c -0.082,7.216 -3.444,10.25 -11.316,10.25 -4.838,0 -10.086,-1.394 -15.088,-4.264 v 7.38 c 5.33,2.05 10.332,3.116 15.088,3.116 7.38,0 12.628,-2.132 15.908,-6.56 2.46,-3.28 2.789,-7.626 2.789,-13.776 z" /></g><g
           transform="translate(259.2412,511.6748)"
           id="g32"><path
             id="path34"
             style="fill:#373535;fill-opacity:1;fill-rule:nonzero;stroke:none"
             d="m 0,0 c -13.858,0 -22.14,8.774 -22.14,23.534 0,14.76 8.364,23.534 22.14,23.534 4.428,0 8.446,-1.148 12.546,-3.443 V 35.916 C 8.692,39.36 5.002,40.836 0,40.836 c -9.184,0 -14.35,-6.15 -14.35,-17.302 0,-11.152 5.248,-17.302 14.35,-17.302 5.084,0 9.02,1.476 12.546,4.838 V 3.444 C 8.61,1.148 4.428,0 0,0" /></g><g
           transform="translate(298.6821,575.1436)"
           id="g36"><path
             id="path38"
             style="fill:#373535;fill-opacity:1;fill-rule:nonzero;stroke:none"
             d="m 0,0 v -36.081 l 19.352,18.615 h 8.939 L 10.66,-34.358 31.079,-62.321 H 22.058 L 5.494,-39.197 0,-44.363 V -62.321 H -7.626 V 0 Z" /></g><path
           id="path40"
           style="fill:#373535;fill-opacity:1;fill-rule:nonzero;stroke:none"
           d="m 363.052,565.795 h -7.38 v 9.348 h 7.38 z m 0,-8.118 v -39.114 h 14.595 v -5.74 h -36.572 v 5.74 h 14.597 v 33.374 h -11.481 v 5.74 z" /><g
           transform="translate(428.3232,512.8228)"
           id="g42"><path
             id="path44"
             style="fill:#373535;fill-opacity:1;fill-rule:nonzero;stroke:none"
             d="m 0,0 h -7.38 v 27.798 c 0,7.954 -2.706,11.726 -8.774,11.726 -6.806,0 -10.742,-4.92 -10.742,-14.186 V 0 h -7.38 v 44.854 h 7.38 V 38.13 c 2.624,5.166 7.215,7.79 13.284,7.79 C -4.428,45.92 0,39.935 0,27.798 Z" /></g><g
           transform="translate(462.3516,552.5112)"
           id="g46"><path
             id="path48"
             style="fill:#373535;fill-opacity:1;fill-rule:nonzero;stroke:none"
             d="m 0,0 c -7.134,0 -11.07,-5.74 -11.07,-16.892 0,-11.152 3.936,-16.974 11.152,-16.974 6.724,0 10.496,5.822 10.496,16.974 C 10.578,-5.74 6.806,0 0,0 m -0.82,-57.319 c -4.018,0 -8.528,0.738 -13.038,2.215 v 7.297 c 5.084,-2.378 9.348,-3.608 13.038,-3.608 8.118,0 11.48,4.347 11.48,13.858 v 5.003 c -2.46,-5.003 -6.478,-7.463 -12.3,-7.463 -10.169,0 -17.22,8.693 -17.22,23.125 0,14.432 7.051,23.124 17.22,23.124 5.74,0 9.676,-2.214 12.218,-7.052 v 5.822 h 7.38 v -41.82 c 0,-13.449 -6.478,-20.501 -18.778,-20.501" /></g><g
           transform="translate(382.4062,388.21)"
           id="g50"><path
             id="path52"
             style="fill:#373535;fill-opacity:1;fill-rule:nonzero;stroke:none"
             d="m 0,0 h 24.864 c 2.072,0 4.661,0.35 7.252,1.05 10.878,2.801 11.655,3.5 15.022,7 3.108,3.85 5.698,10.15 5.698,17.85 0,24.851 -17.094,24.851 -26.937,24.851 L 0,50.751 Z m -57.24,101.502 h 95.572 c 21.238,0 41.699,-0.7 56.463,-18.9 12.432,-15.401 15.281,-35.701 15.281,-50.751 0,-25.201 -7.253,-58.801 -44.549,-70.001 v -0.701 c 7.77,-3.15 13.987,-6.65 18.649,-13.65 4.921,-7.35 10.1,-15.05 13.468,-24.15 l 27.454,-72.452 h -64.75 l -30.304,76.652 c -4.921,12.25 -10.36,24.85 -24.864,24.85 H 0 v -101.502 h -57.24 z" /></g><g
           transform="translate(185.0645,490.7119)"
           id="g54"><path
             id="path56"
             style="fill:#373535;fill-opacity:1;fill-rule:nonzero;stroke:none"
             d="M 0,0 V -87.852 H 62.938 V 0 h 57.239 V -250.604 H 62.938 v 101.151 H 0 V -250.604 H -57.24 L -57.24,0 Z" /></g></g></g></g></svg>