<svg width="1776" height="943" viewBox="0 0 1776 943" fill="none" xmlns="http://www.w3.org/2000/svg">
<circle opacity="0.5" cx="393.384" cy="99.5653" r="71.0653" stroke="url(#paint0_linear_49_75)" stroke-opacity="0.5" stroke-width="19"/>
<circle opacity="0.5" cx="60" cy="346" r="50.5" stroke="url(#paint1_linear_49_75)" stroke-opacity="0.5" stroke-width="19"/>
<circle opacity="0.5" cx="1215.57" cy="366.565" r="71.0653" stroke="url(#paint2_linear_49_75)" stroke-opacity="0.5" stroke-width="19"/>
<circle cx="1583.48" cy="605.787" r="23.9466" stroke="url(#paint3_linear_49_75)" stroke-opacity="0.5" stroke-width="9"/>
<path d="M1709.51 105.836L1737.88 154.983H1681.13L1709.51 105.836Z" fill="url(#paint4_linear_49_75)"/>
<path d="M194.765 720L223.14 769.147H166.39L194.765 720Z" fill="url(#paint5_linear_49_75)"/>
<path d="M479.716 440.726L478.571 497.464L430.006 468.104L479.716 440.726Z" fill="url(#paint6_linear_49_75)"/>
<mask id="mask0_49_75" style="mask-type:alpha" maskUnits="userSpaceOnUse" x="0" y="0" width="1776" height="943">
<rect width="1776" height="943" fill="#D9D9D9"/>
</mask>
<g mask="url(#mask0_49_75)">
<rect x="1074" y="654" width="283" height="202" rx="50" fill="#FE5621" fill-opacity="0.2"/>
<path d="M451 332C451 360.06 428.05 383 399.5 383C370.95 383 348 360.06 348 332C348 303.94 370.95 281 399.5 281C428.05 281 451 303.94 451 332Z" stroke="#FE5621" stroke-opacity="0.2" stroke-width="30"/>
<circle cx="1172.5" cy="130.5" r="32.5" stroke="#FE5621" stroke-opacity="0.2" stroke-width="10"/>
<circle cx="617.167" cy="769.5" r="32.5" stroke="#FE5621" stroke-opacity="0.2" stroke-width="10"/>
<circle cx="392.5" cy="823.5" r="32.5" stroke="#FE5621" stroke-opacity="0.2" stroke-width="10"/>
<circle cx="844.1" cy="500.5" r="32.5" stroke="#FE5621" stroke-opacity="0.2" stroke-width="10"/>
<circle cx="1526.5" cy="495.5" r="23.5" stroke="#FE5621" stroke-opacity="0.2" stroke-width="10"/>
</g>
<defs>
<linearGradient id="paint0_linear_49_75" x1="393.384" y1="19" x2="393.384" y2="180.131" gradientUnits="userSpaceOnUse">
<stop stop-color="#FE5621"/>
<stop offset="1" stop-color="#FE5621" stop-opacity="0"/>
</linearGradient>
<linearGradient id="paint1_linear_49_75" x1="60" y1="286" x2="60" y2="406" gradientUnits="userSpaceOnUse">
<stop stop-color="#FE5621"/>
<stop offset="1" stop-color="#FE5621" stop-opacity="0"/>
</linearGradient>
<linearGradient id="paint2_linear_49_75" x1="1215.57" y1="286" x2="1215.57" y2="447.131" gradientUnits="userSpaceOnUse">
<stop stop-color="#FE5621"/>
<stop offset="1" stop-color="#FE5621" stop-opacity="0.73"/>
</linearGradient>
<linearGradient id="paint3_linear_49_75" x1="1583.48" y1="577.341" x2="1583.48" y2="634.234" gradientUnits="userSpaceOnUse">
<stop stop-color="#FE5621" stop-opacity="0.47"/>
<stop offset="1" stop-color="#FE5621" stop-opacity="0"/>
</linearGradient>
<linearGradient id="paint4_linear_49_75" x1="1709.51" y1="105.836" x2="1709.51" y2="171.366" gradientUnits="userSpaceOnUse">
<stop stop-color="#FE5621" stop-opacity="0.45"/>
<stop offset="1" stop-color="#FFBFAB" stop-opacity="0"/>
</linearGradient>
<linearGradient id="paint5_linear_49_75" x1="194.765" y1="720" x2="194.765" y2="785.53" gradientUnits="userSpaceOnUse">
<stop stop-color="#FE5621" stop-opacity="0.45"/>
<stop offset="1" stop-color="#FFBFAB" stop-opacity="0"/>
</linearGradient>
<linearGradient id="paint6_linear_49_75" x1="479.716" y1="440.726" x2="445.813" y2="496.804" gradientUnits="userSpaceOnUse">
<stop stop-color="#FE5621" stop-opacity="0.45"/>
<stop offset="1" stop-color="#FFBFAB" stop-opacity="0"/>
</linearGradient>
</defs>
</svg>
