<svg viewBox="0 0 28 28" fill="none" xmlns="http://www.w3.org/2000/svg">
<path fill-rule="evenodd" clip-rule="evenodd" d="M23.9366 9.63162L26.1993 7.36875C27.1404 6.42752 27.1402 4.90027 26.1994 3.95979L24.0423 1.80083C24.0422 1.80072 24.0421 1.80061 24.042 1.8005C23.1009 0.859753 21.5716 0.859862 20.6307 1.80083L18.3682 4.06354L23.9366 9.63162ZM19.8565 1.0265C21.2251 -0.342167 23.4478 -0.342167 24.8165 1.0265L26.9735 3.18534C28.3422 4.55357 28.3422 6.77427 26.9735 8.14305L10.3197 24.7929C9.75031 25.3623 9.04408 25.7839 8.27216 26.0083L1.68453 27.9465C1.22357 28.0834 0.724829 27.9575 0.384854 27.5687C0.0448687 27.2786 -0.0822414 26.7803 0.05342 26.3149L1.99111 19.7284C2.21886 18.9564 2.63657 18.2501 3.20648 17.6807L19.8565 1.0265ZM17.594 4.83788L3.98034 18.4554C3.54129 18.894 3.21796 19.4398 3.04151 20.0375C3.04143 20.0378 3.04136 20.038 3.04128 20.0383L1.10459 26.6214C1.10451 26.6217 1.10442 26.622 1.10434 26.6223C1.09139 26.6673 1.09368 26.7061 1.10001 26.7303C1.10158 26.7363 1.10311 26.7405 1.10425 26.7432L1.15641 26.7877L1.20901 26.8478C1.23995 26.8832 1.26633 26.8952 1.28461 26.9003C1.30498 26.906 1.33446 26.9082 1.37288 26.8968L1.3742 26.8964L7.96479 24.9574L7.96644 24.9569C8.55828 24.7848 9.10415 24.4599 9.54544 24.0186L9.54559 24.0184L23.1623 10.4058L17.594 4.83788ZM1.10622 26.7471C1.10622 26.7471 1.10607 26.7469 1.10582 26.7465C1.1061 26.7469 1.10622 26.7471 1.10622 26.7471Z" fill="black"/>
</svg>
